<svg class="icon" viewBox="0 0 1024 1024" xmlns="http://www.w3.org/2000/svg" width="200" height="200"><path d="M768 352h-10.667v-53.333c0-135.254-110.08-245.334-245.333-245.334s-245.333 110.08-245.333 245.334V352H256a117.547 117.547 0 0 0-117.333 117.333v384c0 64.64 52.693 117.334 117.333 117.334h512c64.64 0 117.333-52.694 117.333-117.334v-384C885.333 404.693 832.64 352 768 352zm-437.333-53.333c0-100.054 81.28-181.334 181.333-181.334s181.333 81.28 181.333 181.334V352H330.667v-53.333zm490.666 554.666A53.333 53.333 0 0 1 768 906.667H256a53.333 53.333 0 0 1-53.333-53.334v-384A53.333 53.333 0 0 1 256 416h512a53.333 53.333 0 0 1 53.333 53.333v384z"/><path d="M512 544a32 32 0 0 0-32 32v170.667a32 32 0 1 0 64 0V576a32 32 0 0 0-32-32z"/></svg>