<svg class="icon" viewBox="0 0 1024 1024" xmlns="http://www.w3.org/2000/svg" width="200" height="200"><defs><style>@font-face{font-family:feedback-iconfont;src:url(//at.alicdn.com/t/font_1031158_1uhr8ri0pk5.eot?#iefix) format(&quot;embedded-opentype&quot;),url(//at.alicdn.com/t/font_1031158_1uhr8ri0pk5.woff2) format(&quot;woff2&quot;),url(//at.alicdn.com/t/font_1031158_1uhr8ri0pk5.woff) format(&quot;woff&quot;),url(//at.alicdn.com/t/font_1031158_1uhr8ri0pk5.ttf) format(&quot;truetype&quot;),url(//at.alicdn.com/t/font_1031158_1uhr8ri0pk5.svg#iconfont) format(&quot;svg&quot;)}</style></defs><path d="M930.91 344.436c-41.892-111.709-130.328-209.454-242.037-256-102.4-51.2-232.728-51.2-349.091-9.309C265.309 107.055 204.8 148.945 153.6 200.145l-9.31 13.964V93.091c0-23.273-13.963-41.891-41.89-41.891S60.51 69.818 60.51 93.09v251.346c0 23.273 13.963 41.891 41.89 41.891h251.345c23.273 0 41.891-13.963 41.891-41.89 0-23.273-13.963-41.892-41.89-41.892H186.181l9.309-9.309c41.89-60.509 97.745-107.054 167.564-134.981 88.436-37.237 195.49-32.582 288.581 9.309 88.437 41.89 158.255 111.709 195.491 204.8 37.237 93.09 37.237 200.145-4.654 293.236-41.891 88.436-111.71 158.255-204.8 195.49-88.437 37.237-195.491 32.583-288.582-9.308-88.436-41.891-158.255-111.71-195.491-204.8-4.655-13.964-23.273-27.927-37.236-27.927-4.655 0-9.31 0-18.619 4.654s-18.618 13.964-23.272 23.273c-4.655 9.309-4.655 23.273 0 32.582 41.89 111.709 130.327 209.454 242.036 256 60.51 27.927 125.673 41.89 190.836 41.89 55.855 0 116.364-9.309 162.91-27.927 111.709-41.89 209.454-130.327 256-242.036 41.89-125.673 46.545-251.346 4.654-363.055z"/></svg>