<svg class="icon" viewBox="0 0 1194 1024" xmlns="http://www.w3.org/2000/svg" width="233.203" height="200"><path d="M240.426 240.426v543.148h651.777V240.426H240.426zm0-54.314h651.777a54.315 54.315 0 0 1 54.315 54.314v543.148a54.315 54.315 0 0 1-54.315 54.314H240.426a54.315 54.315 0 0 1-54.314-54.314V240.426a54.315 54.315 0 0 1 54.314-54.314z"/><path d="M349.056 403.37a54.315 54.315 0 1 0 108.63 0 54.315 54.315 0 1 0-108.63 0zm-81.472 263.889L421.62 539.076l100.483 49.698 181.003-158.246L865.453 636.19v120.225h-597.87z"/></svg>